<?xml version="1.0" encoding="iso-8859-1"?>
<!-- Generator: Adobe Illustrator 16.0.0, SVG Export Plug-In . SVG Version: 6.00 Build 0)  -->
<!DOCTYPE svg PUBLIC "-//W3C//DTD SVG 1.1//EN" "http://www.w3.org/Graphics/SVG/1.1/DTD/svg11.dtd">
<svg version="1.1" id="Capa_1" xmlns="http://www.w3.org/2000/svg" xmlns:xlink="http://www.w3.org/1999/xlink" x="0px" y="0px"
	 width="292.4px" height="292.4px" viewBox="0 0 292.362 292.362" style="enable-background: new 0 0 292.362 292.362"
	 xml:space="preserve">
<g fill="white">
	<path transform="matrix(0.7,0,0,1,37.6,0)" d="M 297.8 71.4 c -3.6 -3.6 -7.9 -5.4 -12.8 -5.4 H 29.2 c -5 0 -9.2 1.8 -12.9 5.4 C 12.7 75 10.9 79.3 10.9 84.2 c 0 4.9 1.8 9.2 5.4 12.8 l 127.9 127.9 c 3.6 3.6 7.9 5.4 12.8 5.4 s 9.2 -1.8 12.8 -5.4 L 297.8 97.1 c 3.6 -3.6 5.4 -7.9 5.4 -12.8 C 303.3 79.3 301.5 75 297.8 71.4 z"/>
</g>
<g>
</g>
<g>
</g>
<g>
</g>
<g>
</g>
<g>
</g>
<g>
</g>
<g>
</g>
<g>
</g>
<g>
</g>
<g>
</g>
<g>
</g>
<g>
</g>
<g>
</g>
<g>
</g>
<g>
</g>
</svg>
